<mxfile host="app.diagrams.net" modified="2021-11-20T16:51:30.597Z" agent="5.0 (X11; Linux x86_64) AppleWebKit/537.36 (KHTML, like Gecko) Chrome/94.0.4606.71 Safari/537.36" etag="ep4nQW2wWH2j57n2Xrrn" version="15.8.3" type="github">
  <diagram id="gX0NP72L9NF0O32XfgGe" name="Page-1">
    <mxGraphModel dx="2170" dy="1115" grid="1" gridSize="10" guides="1" tooltips="1" connect="1" arrows="1" fold="1" page="1" pageScale="1" pageWidth="3300" pageHeight="4681" math="0" shadow="0">
      <root>
        <mxCell id="0" />
        <mxCell id="1" parent="0" />
        <mxCell id="hK0s2O0z6G4P-B0Uy8Qg-1" value="«interface»&lt;br&gt;&lt;b&gt;Serializable&lt;/b&gt;" style="html=1;" parent="1" vertex="1">
          <mxGeometry x="630" y="75" width="110" height="50" as="geometry" />
        </mxCell>
        <mxCell id="hK0s2O0z6G4P-B0Uy8Qg-2" value="MainMenu" style="swimlane;fontStyle=1;align=center;verticalAlign=top;childLayout=stackLayout;horizontal=1;startSize=26;horizontalStack=0;resizeParent=1;resizeParentMax=0;resizeLast=0;collapsible=1;marginBottom=0;" parent="1" vertex="1">
          <mxGeometry x="350" y="200" width="210" height="140" as="geometry" />
        </mxCell>
        <mxCell id="hK0s2O0z6G4P-B0Uy8Qg-3" value="- savedGames: GameSlots" style="text;strokeColor=none;fillColor=none;align=left;verticalAlign=top;spacingLeft=4;spacingRight=4;overflow=hidden;rotatable=0;points=[[0,0.5],[1,0.5]];portConstraint=eastwest;" parent="hK0s2O0z6G4P-B0Uy8Qg-2" vertex="1">
          <mxGeometry y="26" width="210" height="34" as="geometry" />
        </mxCell>
        <mxCell id="hK0s2O0z6G4P-B0Uy8Qg-4" value="" style="line;strokeWidth=1;fillColor=none;align=left;verticalAlign=middle;spacingTop=-1;spacingLeft=3;spacingRight=3;rotatable=0;labelPosition=right;points=[];portConstraint=eastwest;" parent="hK0s2O0z6G4P-B0Uy8Qg-2" vertex="1">
          <mxGeometry y="60" width="210" height="8" as="geometry" />
        </mxCell>
        <mxCell id="hK0s2O0z6G4P-B0Uy8Qg-5" value="+ MainMenu()&#xa;- newGame(): void&#xa;- loadGame(): void&#xa;- exit(): void" style="text;strokeColor=none;fillColor=none;align=left;verticalAlign=top;spacingLeft=4;spacingRight=4;overflow=hidden;rotatable=0;points=[[0,0.5],[1,0.5]];portConstraint=eastwest;" parent="hK0s2O0z6G4P-B0Uy8Qg-2" vertex="1">
          <mxGeometry y="68" width="210" height="72" as="geometry" />
        </mxCell>
        <mxCell id="vOEEPBtdWCrj8-D4H_Gn-2" value="Game" style="swimlane;fontStyle=1;align=center;verticalAlign=top;childLayout=stackLayout;horizontal=1;startSize=26;horizontalStack=0;resizeParent=1;resizeParentMax=0;resizeLast=0;collapsible=1;marginBottom=0;" parent="1" vertex="1">
          <mxGeometry x="680" y="340" width="280" height="330" as="geometry" />
        </mxCell>
        <mxCell id="vOEEPBtdWCrj8-D4H_Gn-3" value="- currentPlayer: Player&#xa;- totalCoinsCollected: int&#xa;- obstacleList: ArrayList&lt;ObstacleWindMill&gt;&#xa;- platformList: ArrayList&lt;Platform&gt;&#xa;- orcsList: ArrayList&lt;Orcs&gt;&#xa;- coinList: ArrayList&lt;Coin&gt;&#xa;- weapons: final ArrayList&lt;Weapon&gt;&#xa;- helmets: final ArrayList&lt;Helmet&gt;&#xa;- COST_OF_RESURRECTION: static final int&#xa;- LEVEL_END_LIMIT: static final int&#xa;- LEVEL_DEPTH_LIMIT: static final int&#xa;- GRAVITY: static final int&#xa;" style="text;strokeColor=none;fillColor=none;align=left;verticalAlign=top;spacingLeft=4;spacingRight=4;overflow=hidden;rotatable=0;points=[[0,0.5],[1,0.5]];portConstraint=eastwest;" parent="vOEEPBtdWCrj8-D4H_Gn-2" vertex="1">
          <mxGeometry y="26" width="280" height="194" as="geometry" />
        </mxCell>
        <mxCell id="vOEEPBtdWCrj8-D4H_Gn-4" value="" style="line;strokeWidth=1;fillColor=none;align=left;verticalAlign=middle;spacingTop=-1;spacingLeft=3;spacingRight=3;rotatable=0;labelPosition=right;points=[];portConstraint=eastwest;" parent="vOEEPBtdWCrj8-D4H_Gn-2" vertex="1">
          <mxGeometry y="220" width="280" height="12" as="geometry" />
        </mxCell>
        <mxCell id="vOEEPBtdWCrj8-D4H_Gn-5" value="+ updateTotalCoinsCollected(int addToCoins)&#xa;- endGame(): void&#xa;- pauseGame()&#xa;- resurrectPlayer()&#xa;- isRunning(): boolean&#xa;- getLevelLimit(): int" style="text;strokeColor=none;fillColor=none;align=left;verticalAlign=top;spacingLeft=4;spacingRight=4;overflow=hidden;rotatable=0;points=[[0,0.5],[1,0.5]];portConstraint=eastwest;" parent="vOEEPBtdWCrj8-D4H_Gn-2" vertex="1">
          <mxGeometry y="232" width="280" height="98" as="geometry" />
        </mxCell>
        <mxCell id="vOEEPBtdWCrj8-D4H_Gn-6" value="Player" style="swimlane;fontStyle=1;align=center;verticalAlign=top;childLayout=stackLayout;horizontal=1;startSize=26;horizontalStack=0;resizeParent=1;resizeParentMax=0;resizeLast=0;collapsible=1;marginBottom=0;" parent="1" vertex="1">
          <mxGeometry x="370" y="500" width="270" height="260" as="geometry" />
        </mxCell>
        <mxCell id="vOEEPBtdWCrj8-D4H_Gn-7" value="- currWeapon: Weapon&#xa;- maskWorn: Mask&#xa;- revived: boolean&#xa;- dead: boolean&#xa;- collideRect: CollisionBox" style="text;strokeColor=none;fillColor=none;align=left;verticalAlign=top;spacingLeft=4;spacingRight=4;overflow=hidden;rotatable=0;points=[[0,0.5],[1,0.5]];portConstraint=eastwest;" parent="vOEEPBtdWCrj8-D4H_Gn-6" vertex="1">
          <mxGeometry y="26" width="270" height="84" as="geometry" />
        </mxCell>
        <mxCell id="vOEEPBtdWCrj8-D4H_Gn-8" value="" style="line;strokeWidth=1;fillColor=none;align=left;verticalAlign=middle;spacingTop=-1;spacingLeft=3;spacingRight=3;rotatable=0;labelPosition=right;points=[];portConstraint=eastwest;" parent="vOEEPBtdWCrj8-D4H_Gn-6" vertex="1">
          <mxGeometry y="110" width="270" height="8" as="geometry" />
        </mxCell>
        <mxCell id="vOEEPBtdWCrj8-D4H_Gn-9" value="+ getEquippedWeapon(): Weapon&#xa;+ resurrect()&#xa;+ moveForward()&#xa;+ swapWeapon()&#xa;+ openChest()&#xa;+ isAlive(): boolean&#xa;+ reachedEnd(): boolean&#xa;+ hasRevived(): boolean&#xa;+ jumpInPlace()" style="text;strokeColor=none;fillColor=none;align=left;verticalAlign=top;spacingLeft=4;spacingRight=4;overflow=hidden;rotatable=0;points=[[0,0.5],[1,0.5]];portConstraint=eastwest;" parent="vOEEPBtdWCrj8-D4H_Gn-6" vertex="1">
          <mxGeometry y="118" width="270" height="142" as="geometry" />
        </mxCell>
        <mxCell id="vOEEPBtdWCrj8-D4H_Gn-15" value="GameSlots" style="swimlane;fontStyle=1;align=center;verticalAlign=top;childLayout=stackLayout;horizontal=1;startSize=26;horizontalStack=0;resizeParent=1;resizeParentMax=0;resizeLast=0;collapsible=1;marginBottom=0;" parent="1" vertex="1">
          <mxGeometry x="320" y="20" width="210" height="160" as="geometry" />
        </mxCell>
        <mxCell id="vOEEPBtdWCrj8-D4H_Gn-16" value="- savedGameSlots: ArrayList&lt;Game&gt;" style="text;strokeColor=none;fillColor=none;align=left;verticalAlign=top;spacingLeft=4;spacingRight=4;overflow=hidden;rotatable=0;points=[[0,0.5],[1,0.5]];portConstraint=eastwest;" parent="vOEEPBtdWCrj8-D4H_Gn-15" vertex="1">
          <mxGeometry y="26" width="210" height="54" as="geometry" />
        </mxCell>
        <mxCell id="vOEEPBtdWCrj8-D4H_Gn-17" value="" style="line;strokeWidth=1;fillColor=none;align=left;verticalAlign=middle;spacingTop=-1;spacingLeft=3;spacingRight=3;rotatable=0;labelPosition=right;points=[];portConstraint=eastwest;" parent="vOEEPBtdWCrj8-D4H_Gn-15" vertex="1">
          <mxGeometry y="80" width="210" height="8" as="geometry" />
        </mxCell>
        <mxCell id="vOEEPBtdWCrj8-D4H_Gn-18" value="- displaySavedGames(): void&#xa;- selectSavedGames(): Game&#xa;- saveAGame(Game toSave): void&#xa;" style="text;strokeColor=none;fillColor=none;align=left;verticalAlign=top;spacingLeft=4;spacingRight=4;overflow=hidden;rotatable=0;points=[[0,0.5],[1,0.5]];portConstraint=eastwest;" parent="vOEEPBtdWCrj8-D4H_Gn-15" vertex="1">
          <mxGeometry y="88" width="210" height="72" as="geometry" />
        </mxCell>
        <mxCell id="vOEEPBtdWCrj8-D4H_Gn-20" value="PauseMenu" style="swimlane;fontStyle=1;align=center;verticalAlign=top;childLayout=stackLayout;horizontal=1;startSize=26;horizontalStack=0;resizeParent=1;resizeParentMax=0;resizeLast=0;collapsible=1;marginBottom=0;" parent="1" vertex="1">
          <mxGeometry x="80" y="200" width="230" height="150" as="geometry" />
        </mxCell>
        <mxCell id="vOEEPBtdWCrj8-D4H_Gn-21" value="- currentGame: Game" style="text;strokeColor=none;fillColor=none;align=left;verticalAlign=top;spacingLeft=4;spacingRight=4;overflow=hidden;rotatable=0;points=[[0,0.5],[1,0.5]];portConstraint=eastwest;" parent="vOEEPBtdWCrj8-D4H_Gn-20" vertex="1">
          <mxGeometry y="26" width="230" height="34" as="geometry" />
        </mxCell>
        <mxCell id="vOEEPBtdWCrj8-D4H_Gn-22" value="" style="line;strokeWidth=1;fillColor=none;align=left;verticalAlign=middle;spacingTop=-1;spacingLeft=3;spacingRight=3;rotatable=0;labelPosition=right;points=[];portConstraint=eastwest;" parent="vOEEPBtdWCrj8-D4H_Gn-20" vertex="1">
          <mxGeometry y="60" width="230" height="8" as="geometry" />
        </mxCell>
        <mxCell id="vOEEPBtdWCrj8-D4H_Gn-23" value="+ PauseMenu(Game currentGame): void&#xa;- displayMenu(): void&#xa;- saveGame(): void&#xa;- returnToMenu(): void&#xa;- resumeGame()" style="text;strokeColor=none;fillColor=none;align=left;verticalAlign=top;spacingLeft=4;spacingRight=4;overflow=hidden;rotatable=0;points=[[0,0.5],[1,0.5]];portConstraint=eastwest;" parent="vOEEPBtdWCrj8-D4H_Gn-20" vertex="1">
          <mxGeometry y="68" width="230" height="82" as="geometry" />
        </mxCell>
        <mxCell id="vOEEPBtdWCrj8-D4H_Gn-24" value="Helmet" style="swimlane;fontStyle=1;align=center;verticalAlign=top;childLayout=stackLayout;horizontal=1;startSize=26;horizontalStack=0;resizeParent=1;resizeParentMax=0;resizeLast=0;collapsible=1;marginBottom=0;" parent="1" vertex="1">
          <mxGeometry x="30" y="690" width="270" height="150" as="geometry" />
        </mxCell>
        <mxCell id="vOEEPBtdWCrj8-D4H_Gn-25" value="- weaponA: Weapon&#xa;- weaponB: Weapon" style="text;strokeColor=none;fillColor=none;align=left;verticalAlign=top;spacingLeft=4;spacingRight=4;overflow=hidden;rotatable=0;points=[[0,0.5],[1,0.5]];portConstraint=eastwest;" parent="vOEEPBtdWCrj8-D4H_Gn-24" vertex="1">
          <mxGeometry y="26" width="270" height="44" as="geometry" />
        </mxCell>
        <mxCell id="vOEEPBtdWCrj8-D4H_Gn-26" value="" style="line;strokeWidth=1;fillColor=none;align=left;verticalAlign=middle;spacingTop=-1;spacingLeft=3;spacingRight=3;rotatable=0;labelPosition=right;points=[];portConstraint=eastwest;" parent="vOEEPBtdWCrj8-D4H_Gn-24" vertex="1">
          <mxGeometry y="70" width="270" height="8" as="geometry" />
        </mxCell>
        <mxCell id="vOEEPBtdWCrj8-D4H_Gn-27" value="+ Helmet(Weapon weaponA, Weapon weaponB)&#xa;+ swapWeapon(): Weapon&#xa;+ equipWeapon(): Weapon" style="text;strokeColor=none;fillColor=none;align=left;verticalAlign=top;spacingLeft=4;spacingRight=4;overflow=hidden;rotatable=0;points=[[0,0.5],[1,0.5]];portConstraint=eastwest;" parent="vOEEPBtdWCrj8-D4H_Gn-24" vertex="1">
          <mxGeometry y="78" width="270" height="72" as="geometry" />
        </mxCell>
        <mxCell id="x3uX6tjqPAJb4ptlxCma-19" value="WorldPositon" style="swimlane;fontStyle=1;align=center;verticalAlign=top;childLayout=stackLayout;horizontal=1;startSize=26;horizontalStack=0;resizeParent=1;resizeParentMax=0;resizeLast=0;collapsible=1;marginBottom=0;" vertex="1" parent="1">
          <mxGeometry x="1005" y="450" width="270" height="148" as="geometry">
            <mxRectangle x="330" y="780" width="70" height="26" as="alternateBounds" />
          </mxGeometry>
        </mxCell>
        <mxCell id="x3uX6tjqPAJb4ptlxCma-20" value="- posX: int&#xa;- posY: int" style="text;strokeColor=none;fillColor=none;align=left;verticalAlign=top;spacingLeft=4;spacingRight=4;overflow=hidden;rotatable=0;points=[[0,0.5],[1,0.5]];portConstraint=eastwest;" vertex="1" parent="x3uX6tjqPAJb4ptlxCma-19">
          <mxGeometry y="26" width="270" height="34" as="geometry" />
        </mxCell>
        <mxCell id="x3uX6tjqPAJb4ptlxCma-21" value="" style="line;strokeWidth=1;fillColor=none;align=left;verticalAlign=middle;spacingTop=-1;spacingLeft=3;spacingRight=3;rotatable=0;labelPosition=right;points=[];portConstraint=eastwest;" vertex="1" parent="x3uX6tjqPAJb4ptlxCma-19">
          <mxGeometry y="60" width="270" height="8" as="geometry" />
        </mxCell>
        <mxCell id="x3uX6tjqPAJb4ptlxCma-22" value="  WorldPosition(int X, int Y)&#xa;+ getPosX(): int&#xa;+ getPosY(): int&#xa;+ updatePosX(): int&#xa;+ updatePosY(): int" style="text;strokeColor=none;fillColor=none;align=left;verticalAlign=top;spacingLeft=4;spacingRight=4;overflow=hidden;rotatable=0;points=[[0,0.5],[1,0.5]];portConstraint=eastwest;" vertex="1" parent="x3uX6tjqPAJb4ptlxCma-19">
          <mxGeometry y="68" width="270" height="80" as="geometry" />
        </mxCell>
        <mxCell id="x3uX6tjqPAJb4ptlxCma-23" value="&lt;p style=&quot;margin: 0px ; margin-top: 4px ; text-align: center&quot;&gt;&lt;b&gt;CollisionBox&lt;/b&gt;&lt;/p&gt;&lt;hr size=&quot;1&quot;&gt;&lt;p style=&quot;margin: 0px ; margin-left: 4px&quot;&gt;- boxBounds: WorldPositon[4]&lt;/p&gt;&lt;p style=&quot;margin: 0px ; margin-left: 4px&quot;&gt;- boxCenter: WorldPosition&lt;/p&gt;&lt;p style=&quot;margin: 0px ; margin-left: 4px&quot;&gt;- dimensions: WorldPosition&lt;/p&gt;&lt;hr size=&quot;1&quot;&gt;&lt;p style=&quot;margin: 0px ; margin-left: 4px&quot;&gt;&amp;nbsp; &amp;nbsp;CollisionBox(WorldPosition boundingBoxCenter, WorldPostion dimensions)&lt;/p&gt;&lt;p style=&quot;margin: 0px ; margin-left: 4px&quot;&gt;+ isTouching(CollisionBox box2): boolean&lt;br&gt;&lt;/p&gt;&lt;p style=&quot;margin: 0px ; margin-left: 4px&quot;&gt;+ isTouchingFromBelow(CollisionBox box2): boolean&lt;/p&gt;&lt;p style=&quot;margin: 0px ; margin-left: 4px&quot;&gt;+ moveToPosition(WorldPosition newBoxCenter)&lt;/p&gt;&lt;p style=&quot;margin: 0px ; margin-left: 4px&quot;&gt;+ rotateByAngle(int angle, WorldPosition center)&lt;/p&gt;" style="verticalAlign=top;align=left;overflow=fill;fontSize=12;fontFamily=Helvetica;html=1;" vertex="1" parent="1">
          <mxGeometry x="1360" y="439" width="460" height="170" as="geometry" />
        </mxCell>
        <mxCell id="x3uX6tjqPAJb4ptlxCma-48" value="" style="group" vertex="1" connectable="0" parent="1">
          <mxGeometry x="1240" y="870" width="1110" height="500" as="geometry" />
        </mxCell>
        <mxCell id="JK8JX9TBD_QUvxRM9hjS-21" value="Orcs" style="swimlane;fontStyle=1;align=center;verticalAlign=top;childLayout=stackLayout;horizontal=1;startSize=26;horizontalStack=0;resizeParent=1;resizeParentMax=0;resizeLast=0;collapsible=1;marginBottom=0;" parent="x3uX6tjqPAJb4ptlxCma-48" vertex="1">
          <mxGeometry x="290" y="160" width="270" height="150" as="geometry">
            <mxRectangle x="330" y="780" width="70" height="26" as="alternateBounds" />
          </mxGeometry>
        </mxCell>
        <mxCell id="JK8JX9TBD_QUvxRM9hjS-22" value="- collideRect: CollisionBox&#xa;- COINS_GIVEN: final int&#xa;- dead: boolean&#xa;- health: int&#xa;- weight: int" style="text;strokeColor=none;fillColor=none;align=left;verticalAlign=top;spacingLeft=4;spacingRight=4;overflow=hidden;rotatable=0;points=[[0,0.5],[1,0.5]];portConstraint=eastwest;" parent="JK8JX9TBD_QUvxRM9hjS-21" vertex="1">
          <mxGeometry y="26" width="270" height="84" as="geometry" />
        </mxCell>
        <mxCell id="JK8JX9TBD_QUvxRM9hjS-23" value="" style="line;strokeWidth=1;fillColor=none;align=left;verticalAlign=middle;spacingTop=-1;spacingLeft=3;spacingRight=3;rotatable=0;labelPosition=right;points=[];portConstraint=eastwest;" parent="JK8JX9TBD_QUvxRM9hjS-21" vertex="1">
          <mxGeometry y="110" width="270" height="8" as="geometry" />
        </mxCell>
        <mxCell id="JK8JX9TBD_QUvxRM9hjS-24" value="+ jump()" style="text;strokeColor=none;fillColor=none;align=left;verticalAlign=top;spacingLeft=4;spacingRight=4;overflow=hidden;rotatable=0;points=[[0,0.5],[1,0.5]];portConstraint=eastwest;" parent="JK8JX9TBD_QUvxRM9hjS-21" vertex="1">
          <mxGeometry y="118" width="270" height="32" as="geometry" />
        </mxCell>
        <mxCell id="JK8JX9TBD_QUvxRM9hjS-25" value="ObstacleWindMill" style="swimlane;fontStyle=1;align=center;verticalAlign=top;childLayout=stackLayout;horizontal=1;startSize=26;horizontalStack=0;resizeParent=1;resizeParentMax=0;resizeLast=0;collapsible=1;marginBottom=0;" parent="x3uX6tjqPAJb4ptlxCma-48" vertex="1">
          <mxGeometry x="590" y="160" width="240" height="100" as="geometry">
            <mxRectangle x="330" y="780" width="70" height="26" as="alternateBounds" />
          </mxGeometry>
        </mxCell>
        <mxCell id="JK8JX9TBD_QUvxRM9hjS-26" value="- collideRect: CollisionBox[3] &#xa;" style="text;strokeColor=none;fillColor=none;align=left;verticalAlign=top;spacingLeft=4;spacingRight=4;overflow=hidden;rotatable=0;points=[[0,0.5],[1,0.5]];portConstraint=eastwest;" parent="JK8JX9TBD_QUvxRM9hjS-25" vertex="1">
          <mxGeometry y="26" width="240" height="24" as="geometry" />
        </mxCell>
        <mxCell id="JK8JX9TBD_QUvxRM9hjS-27" value="" style="line;strokeWidth=1;fillColor=none;align=left;verticalAlign=middle;spacingTop=-1;spacingLeft=3;spacingRight=3;rotatable=0;labelPosition=right;points=[];portConstraint=eastwest;" parent="JK8JX9TBD_QUvxRM9hjS-25" vertex="1">
          <mxGeometry y="50" width="240" height="18" as="geometry" />
        </mxCell>
        <mxCell id="JK8JX9TBD_QUvxRM9hjS-28" value="+ rotateBlades()" style="text;strokeColor=none;fillColor=none;align=left;verticalAlign=top;spacingLeft=4;spacingRight=4;overflow=hidden;rotatable=0;points=[[0,0.5],[1,0.5]];portConstraint=eastwest;fontStyle=0" parent="JK8JX9TBD_QUvxRM9hjS-25" vertex="1">
          <mxGeometry y="68" width="240" height="32" as="geometry" />
        </mxCell>
        <mxCell id="x3uX6tjqPAJb4ptlxCma-2" value="RedOrcs" style="swimlane;fontStyle=1;align=center;verticalAlign=top;childLayout=stackLayout;horizontal=1;startSize=26;horizontalStack=0;resizeParent=1;resizeParentMax=0;resizeLast=0;collapsible=1;marginBottom=0;" vertex="1" parent="x3uX6tjqPAJb4ptlxCma-48">
          <mxGeometry y="400" width="270" height="90" as="geometry">
            <mxRectangle x="330" y="780" width="70" height="26" as="alternateBounds" />
          </mxGeometry>
        </mxCell>
        <mxCell id="x3uX6tjqPAJb4ptlxCma-3" value="- color: Color" style="text;strokeColor=none;fillColor=none;align=left;verticalAlign=top;spacingLeft=4;spacingRight=4;overflow=hidden;rotatable=0;points=[[0,0.5],[1,0.5]];portConstraint=eastwest;" vertex="1" parent="x3uX6tjqPAJb4ptlxCma-2">
          <mxGeometry y="26" width="270" height="24" as="geometry" />
        </mxCell>
        <mxCell id="x3uX6tjqPAJb4ptlxCma-4" value="" style="line;strokeWidth=1;fillColor=none;align=left;verticalAlign=middle;spacingTop=-1;spacingLeft=3;spacingRight=3;rotatable=0;labelPosition=right;points=[];portConstraint=eastwest;" vertex="1" parent="x3uX6tjqPAJb4ptlxCma-2">
          <mxGeometry y="50" width="270" height="8" as="geometry" />
        </mxCell>
        <mxCell id="x3uX6tjqPAJb4ptlxCma-5" value="+ explode()&#xa;" style="text;strokeColor=none;fillColor=none;align=left;verticalAlign=top;spacingLeft=4;spacingRight=4;overflow=hidden;rotatable=0;points=[[0,0.5],[1,0.5]];portConstraint=eastwest;" vertex="1" parent="x3uX6tjqPAJb4ptlxCma-2">
          <mxGeometry y="58" width="270" height="32" as="geometry" />
        </mxCell>
        <mxCell id="x3uX6tjqPAJb4ptlxCma-6" value="GreenOrcs" style="swimlane;fontStyle=1;align=center;verticalAlign=top;childLayout=stackLayout;horizontal=1;startSize=26;horizontalStack=0;resizeParent=1;resizeParentMax=0;resizeLast=0;collapsible=1;marginBottom=0;" vertex="1" parent="x3uX6tjqPAJb4ptlxCma-48">
          <mxGeometry x="610" y="400" width="270" height="68" as="geometry">
            <mxRectangle x="330" y="780" width="70" height="26" as="alternateBounds" />
          </mxGeometry>
        </mxCell>
        <mxCell id="x3uX6tjqPAJb4ptlxCma-7" value="- color: Color&#xa;- " style="text;strokeColor=none;fillColor=none;align=left;verticalAlign=top;spacingLeft=4;spacingRight=4;overflow=hidden;rotatable=0;points=[[0,0.5],[1,0.5]];portConstraint=eastwest;" vertex="1" parent="x3uX6tjqPAJb4ptlxCma-6">
          <mxGeometry y="26" width="270" height="34" as="geometry" />
        </mxCell>
        <mxCell id="x3uX6tjqPAJb4ptlxCma-8" value="" style="line;strokeWidth=1;fillColor=none;align=left;verticalAlign=middle;spacingTop=-1;spacingLeft=3;spacingRight=3;rotatable=0;labelPosition=right;points=[];portConstraint=eastwest;" vertex="1" parent="x3uX6tjqPAJb4ptlxCma-6">
          <mxGeometry y="60" width="270" height="8" as="geometry" />
        </mxCell>
        <mxCell id="x3uX6tjqPAJb4ptlxCma-10" value="BossOrcs" style="swimlane;fontStyle=1;align=center;verticalAlign=top;childLayout=stackLayout;horizontal=1;startSize=26;horizontalStack=0;resizeParent=1;resizeParentMax=0;resizeLast=0;collapsible=1;marginBottom=0;" vertex="1" parent="x3uX6tjqPAJb4ptlxCma-48">
          <mxGeometry x="300" y="400" width="270" height="100" as="geometry">
            <mxRectangle x="330" y="780" width="70" height="26" as="alternateBounds" />
          </mxGeometry>
        </mxCell>
        <mxCell id="x3uX6tjqPAJb4ptlxCma-11" value="- color: Color&#xa;- bossAxe: Axe" style="text;strokeColor=none;fillColor=none;align=left;verticalAlign=top;spacingLeft=4;spacingRight=4;overflow=hidden;rotatable=0;points=[[0,0.5],[1,0.5]];portConstraint=eastwest;" vertex="1" parent="x3uX6tjqPAJb4ptlxCma-10">
          <mxGeometry y="26" width="270" height="34" as="geometry" />
        </mxCell>
        <mxCell id="x3uX6tjqPAJb4ptlxCma-12" value="" style="line;strokeWidth=1;fillColor=none;align=left;verticalAlign=middle;spacingTop=-1;spacingLeft=3;spacingRight=3;rotatable=0;labelPosition=right;points=[];portConstraint=eastwest;" vertex="1" parent="x3uX6tjqPAJb4ptlxCma-10">
          <mxGeometry y="60" width="270" height="8" as="geometry" />
        </mxCell>
        <mxCell id="x3uX6tjqPAJb4ptlxCma-13" value="+ useWeapon()" style="text;strokeColor=none;fillColor=none;align=left;verticalAlign=top;spacingLeft=4;spacingRight=4;overflow=hidden;rotatable=0;points=[[0,0.5],[1,0.5]];portConstraint=eastwest;" vertex="1" parent="x3uX6tjqPAJb4ptlxCma-10">
          <mxGeometry y="68" width="270" height="32" as="geometry" />
        </mxCell>
        <mxCell id="x3uX6tjqPAJb4ptlxCma-26" value="Platform" style="swimlane;fontStyle=1;align=center;verticalAlign=top;childLayout=stackLayout;horizontal=1;startSize=26;horizontalStack=0;resizeParent=1;resizeParentMax=0;resizeLast=0;collapsible=1;marginBottom=0;" vertex="1" parent="x3uX6tjqPAJb4ptlxCma-48">
          <mxGeometry y="160" width="240" height="68" as="geometry">
            <mxRectangle x="330" y="780" width="70" height="26" as="alternateBounds" />
          </mxGeometry>
        </mxCell>
        <mxCell id="x3uX6tjqPAJb4ptlxCma-27" value="- collideRect: CollisionBox" style="text;strokeColor=none;fillColor=none;align=left;verticalAlign=top;spacingLeft=4;spacingRight=4;overflow=hidden;rotatable=0;points=[[0,0.5],[1,0.5]];portConstraint=eastwest;" vertex="1" parent="x3uX6tjqPAJb4ptlxCma-26">
          <mxGeometry y="26" width="240" height="24" as="geometry" />
        </mxCell>
        <mxCell id="x3uX6tjqPAJb4ptlxCma-28" value="" style="line;strokeWidth=1;fillColor=none;align=left;verticalAlign=middle;spacingTop=-1;spacingLeft=3;spacingRight=3;rotatable=0;labelPosition=right;points=[];portConstraint=eastwest;" vertex="1" parent="x3uX6tjqPAJb4ptlxCma-26">
          <mxGeometry y="50" width="240" height="18" as="geometry" />
        </mxCell>
        <mxCell id="x3uX6tjqPAJb4ptlxCma-37" value="&lt;p style=&quot;margin: 0px ; margin-top: 4px ; text-align: center&quot;&gt;&lt;i&gt;&amp;lt;&amp;lt;Interface&amp;gt;&amp;gt;&lt;/i&gt;&lt;br&gt;&lt;b&gt;WorldObject&lt;/b&gt;&lt;/p&gt;&lt;hr size=&quot;1&quot;&gt;&lt;p style=&quot;margin: 0px ; margin-left: 4px&quot;&gt;&lt;span&gt;+ drawObject(ArrayList&amp;lt;World Object&amp;gt; objects)&lt;/span&gt;&lt;/p&gt;&lt;p style=&quot;margin: 0px ; margin-left: 4px&quot;&gt;&lt;span&gt;+ deleteObject(ArrayList&amp;lt;World Object&amp;gt; objects)&lt;/span&gt;&lt;/p&gt;&lt;p style=&quot;margin: 0px ; margin-left: 4px&quot;&gt;&lt;span&gt;+ isTouchingPlayer(Player currPlayer): boolean&lt;/span&gt;&lt;/p&gt;" style="verticalAlign=top;align=left;overflow=fill;fontSize=12;fontFamily=Helvetica;html=1;" vertex="1" parent="x3uX6tjqPAJb4ptlxCma-48">
          <mxGeometry x="410" width="280" height="90" as="geometry" />
        </mxCell>
        <mxCell id="x3uX6tjqPAJb4ptlxCma-42" value="Coin" style="swimlane;fontStyle=1;align=center;verticalAlign=top;childLayout=stackLayout;horizontal=1;startSize=26;horizontalStack=0;resizeParent=1;resizeParentMax=0;resizeLast=0;collapsible=1;marginBottom=0;" vertex="1" parent="x3uX6tjqPAJb4ptlxCma-48">
          <mxGeometry x="870" y="160" width="240" height="110" as="geometry">
            <mxRectangle x="330" y="780" width="70" height="26" as="alternateBounds" />
          </mxGeometry>
        </mxCell>
        <mxCell id="x3uX6tjqPAJb4ptlxCma-43" value="- collideRect: CollisionBox&#xa;- price: static final int" style="text;strokeColor=none;fillColor=none;align=left;verticalAlign=top;spacingLeft=4;spacingRight=4;overflow=hidden;rotatable=0;points=[[0,0.5],[1,0.5]];portConstraint=eastwest;" vertex="1" parent="x3uX6tjqPAJb4ptlxCma-42">
          <mxGeometry y="26" width="240" height="34" as="geometry" />
        </mxCell>
        <mxCell id="x3uX6tjqPAJb4ptlxCma-44" value="" style="line;strokeWidth=1;fillColor=none;align=left;verticalAlign=middle;spacingTop=-1;spacingLeft=3;spacingRight=3;rotatable=0;labelPosition=right;points=[];portConstraint=eastwest;" vertex="1" parent="x3uX6tjqPAJb4ptlxCma-42">
          <mxGeometry y="60" width="240" height="18" as="geometry" />
        </mxCell>
        <mxCell id="x3uX6tjqPAJb4ptlxCma-45" value="+ addToScore(Game thisGame)" style="text;strokeColor=none;fillColor=none;align=left;verticalAlign=top;spacingLeft=4;spacingRight=4;overflow=hidden;rotatable=0;points=[[0,0.5],[1,0.5]];portConstraint=eastwest;fontStyle=0" vertex="1" parent="x3uX6tjqPAJb4ptlxCma-42">
          <mxGeometry y="78" width="240" height="32" as="geometry" />
        </mxCell>
        <mxCell id="x3uX6tjqPAJb4ptlxCma-49" value="" style="group" vertex="1" connectable="0" parent="1">
          <mxGeometry x="220" y="890" width="880" height="538" as="geometry" />
        </mxCell>
        <mxCell id="JK8JX9TBD_QUvxRM9hjS-1" value="Weapon" style="swimlane;fontStyle=1;align=center;verticalAlign=top;childLayout=stackLayout;horizontal=1;startSize=26;horizontalStack=0;resizeParent=1;resizeParentMax=0;resizeLast=0;collapsible=1;marginBottom=0;" parent="x3uX6tjqPAJb4ptlxCma-49" vertex="1">
          <mxGeometry x="330" width="270" height="178" as="geometry" />
        </mxCell>
        <mxCell id="JK8JX9TBD_QUvxRM9hjS-2" value="- damage: int&#xa;- countOfWeapon: int&#xa;- upgradeLevel: int" style="text;strokeColor=none;fillColor=none;align=left;verticalAlign=top;spacingLeft=4;spacingRight=4;overflow=hidden;rotatable=0;points=[[0,0.5],[1,0.5]];portConstraint=eastwest;" parent="JK8JX9TBD_QUvxRM9hjS-1" vertex="1">
          <mxGeometry y="26" width="270" height="64" as="geometry" />
        </mxCell>
        <mxCell id="JK8JX9TBD_QUvxRM9hjS-3" value="" style="line;strokeWidth=1;fillColor=none;align=left;verticalAlign=middle;spacingTop=-1;spacingLeft=3;spacingRight=3;rotatable=0;labelPosition=right;points=[];portConstraint=eastwest;" parent="JK8JX9TBD_QUvxRM9hjS-1" vertex="1">
          <mxGeometry y="90" width="270" height="8" as="geometry" />
        </mxCell>
        <mxCell id="JK8JX9TBD_QUvxRM9hjS-4" value="+ upgradeWeapon(int upgradeLevel)&#xa;+ getDamage()&#xa;+ useWeapon()" style="text;strokeColor=none;fillColor=none;align=left;verticalAlign=top;spacingLeft=4;spacingRight=4;overflow=hidden;rotatable=0;points=[[0,0.5],[1,0.5]];portConstraint=eastwest;" parent="JK8JX9TBD_QUvxRM9hjS-1" vertex="1">
          <mxGeometry y="98" width="270" height="80" as="geometry" />
        </mxCell>
        <mxCell id="JK8JX9TBD_QUvxRM9hjS-5" value="ThrowingKnives" style="swimlane;fontStyle=1;align=center;verticalAlign=top;childLayout=stackLayout;horizontal=1;startSize=26;horizontalStack=0;resizeParent=1;resizeParentMax=0;resizeLast=0;collapsible=1;marginBottom=0;" parent="x3uX6tjqPAJb4ptlxCma-49" vertex="1">
          <mxGeometry y="150" width="270" height="178" as="geometry" />
        </mxCell>
        <mxCell id="JK8JX9TBD_QUvxRM9hjS-6" value="-" style="text;strokeColor=none;fillColor=none;align=left;verticalAlign=top;spacingLeft=4;spacingRight=4;overflow=hidden;rotatable=0;points=[[0,0.5],[1,0.5]];portConstraint=eastwest;" parent="JK8JX9TBD_QUvxRM9hjS-5" vertex="1">
          <mxGeometry y="26" width="270" height="64" as="geometry" />
        </mxCell>
        <mxCell id="JK8JX9TBD_QUvxRM9hjS-7" value="" style="line;strokeWidth=1;fillColor=none;align=left;verticalAlign=middle;spacingTop=-1;spacingLeft=3;spacingRight=3;rotatable=0;labelPosition=right;points=[];portConstraint=eastwest;" parent="JK8JX9TBD_QUvxRM9hjS-5" vertex="1">
          <mxGeometry y="90" width="270" height="8" as="geometry" />
        </mxCell>
        <mxCell id="JK8JX9TBD_QUvxRM9hjS-8" value="+" style="text;strokeColor=none;fillColor=none;align=left;verticalAlign=top;spacingLeft=4;spacingRight=4;overflow=hidden;rotatable=0;points=[[0,0.5],[1,0.5]];portConstraint=eastwest;" parent="JK8JX9TBD_QUvxRM9hjS-5" vertex="1">
          <mxGeometry y="98" width="270" height="80" as="geometry" />
        </mxCell>
        <mxCell id="JK8JX9TBD_QUvxRM9hjS-10" value="Lance" style="swimlane;fontStyle=1;align=center;verticalAlign=top;childLayout=stackLayout;horizontal=1;startSize=26;horizontalStack=0;resizeParent=1;resizeParentMax=0;resizeLast=0;collapsible=1;marginBottom=0;" parent="x3uX6tjqPAJb4ptlxCma-49" vertex="1">
          <mxGeometry x="280" y="360" width="270" height="178" as="geometry">
            <mxRectangle x="330" y="780" width="70" height="26" as="alternateBounds" />
          </mxGeometry>
        </mxCell>
        <mxCell id="JK8JX9TBD_QUvxRM9hjS-11" value="-" style="text;strokeColor=none;fillColor=none;align=left;verticalAlign=top;spacingLeft=4;spacingRight=4;overflow=hidden;rotatable=0;points=[[0,0.5],[1,0.5]];portConstraint=eastwest;" parent="JK8JX9TBD_QUvxRM9hjS-10" vertex="1">
          <mxGeometry y="26" width="270" height="64" as="geometry" />
        </mxCell>
        <mxCell id="JK8JX9TBD_QUvxRM9hjS-12" value="" style="line;strokeWidth=1;fillColor=none;align=left;verticalAlign=middle;spacingTop=-1;spacingLeft=3;spacingRight=3;rotatable=0;labelPosition=right;points=[];portConstraint=eastwest;" parent="JK8JX9TBD_QUvxRM9hjS-10" vertex="1">
          <mxGeometry y="90" width="270" height="8" as="geometry" />
        </mxCell>
        <mxCell id="JK8JX9TBD_QUvxRM9hjS-13" value="+" style="text;strokeColor=none;fillColor=none;align=left;verticalAlign=top;spacingLeft=4;spacingRight=4;overflow=hidden;rotatable=0;points=[[0,0.5],[1,0.5]];portConstraint=eastwest;" parent="JK8JX9TBD_QUvxRM9hjS-10" vertex="1">
          <mxGeometry y="98" width="270" height="80" as="geometry" />
        </mxCell>
        <mxCell id="x3uX6tjqPAJb4ptlxCma-15" value="Axe" style="swimlane;fontStyle=1;align=center;verticalAlign=top;childLayout=stackLayout;horizontal=1;startSize=26;horizontalStack=0;resizeParent=1;resizeParentMax=0;resizeLast=0;collapsible=1;marginBottom=0;" vertex="1" parent="x3uX6tjqPAJb4ptlxCma-49">
          <mxGeometry x="610" y="270" width="270" height="178" as="geometry">
            <mxRectangle x="330" y="780" width="70" height="26" as="alternateBounds" />
          </mxGeometry>
        </mxCell>
        <mxCell id="x3uX6tjqPAJb4ptlxCma-16" value="-" style="text;strokeColor=none;fillColor=none;align=left;verticalAlign=top;spacingLeft=4;spacingRight=4;overflow=hidden;rotatable=0;points=[[0,0.5],[1,0.5]];portConstraint=eastwest;" vertex="1" parent="x3uX6tjqPAJb4ptlxCma-15">
          <mxGeometry y="26" width="270" height="64" as="geometry" />
        </mxCell>
        <mxCell id="x3uX6tjqPAJb4ptlxCma-17" value="" style="line;strokeWidth=1;fillColor=none;align=left;verticalAlign=middle;spacingTop=-1;spacingLeft=3;spacingRight=3;rotatable=0;labelPosition=right;points=[];portConstraint=eastwest;" vertex="1" parent="x3uX6tjqPAJb4ptlxCma-15">
          <mxGeometry y="90" width="270" height="8" as="geometry" />
        </mxCell>
        <mxCell id="x3uX6tjqPAJb4ptlxCma-18" value="+" style="text;strokeColor=none;fillColor=none;align=left;verticalAlign=top;spacingLeft=4;spacingRight=4;overflow=hidden;rotatable=0;points=[[0,0.5],[1,0.5]];portConstraint=eastwest;" vertex="1" parent="x3uX6tjqPAJb4ptlxCma-15">
          <mxGeometry y="98" width="270" height="80" as="geometry" />
        </mxCell>
        <mxCell id="x3uX6tjqPAJb4ptlxCma-53" value="" style="group" vertex="1" connectable="0" parent="1">
          <mxGeometry x="1070" y="710" width="400" height="170" as="geometry" />
        </mxCell>
        <mxCell id="vOEEPBtdWCrj8-D4H_Gn-28" value="«interface»&lt;br&gt;&lt;b&gt;Chest&lt;/b&gt;" style="html=1;" parent="x3uX6tjqPAJb4ptlxCma-53" vertex="1">
          <mxGeometry x="150" width="110" height="50" as="geometry" />
        </mxCell>
        <mxCell id="x3uX6tjqPAJb4ptlxCma-51" value="&lt;p style=&quot;margin: 0px ; margin-top: 4px ; text-align: center&quot;&gt;&lt;b&gt;CoinChest&lt;/b&gt;&lt;/p&gt;&lt;hr size=&quot;1&quot;&gt;&lt;p style=&quot;margin: 0px ; margin-left: 4px&quot;&gt;+ field: Type&lt;/p&gt;&lt;hr size=&quot;1&quot;&gt;&lt;p style=&quot;margin: 0px ; margin-left: 4px&quot;&gt;+ method(): Type&lt;/p&gt;" style="verticalAlign=top;align=left;overflow=fill;fontSize=12;fontFamily=Helvetica;html=1;" vertex="1" parent="x3uX6tjqPAJb4ptlxCma-53">
          <mxGeometry y="80" width="160" height="90" as="geometry" />
        </mxCell>
        <mxCell id="x3uX6tjqPAJb4ptlxCma-52" value="&lt;p style=&quot;margin: 0px ; margin-top: 4px ; text-align: center&quot;&gt;&lt;b&gt;WeaponsChest&lt;/b&gt;&lt;/p&gt;&lt;hr size=&quot;1&quot;&gt;&lt;p style=&quot;margin: 0px ; margin-left: 4px&quot;&gt;+ field: Type&lt;/p&gt;&lt;hr size=&quot;1&quot;&gt;&lt;p style=&quot;margin: 0px ; margin-left: 4px&quot;&gt;+ method(): Type&lt;/p&gt;" style="verticalAlign=top;align=left;overflow=fill;fontSize=12;fontFamily=Helvetica;html=1;" vertex="1" parent="x3uX6tjqPAJb4ptlxCma-53">
          <mxGeometry x="240" y="80" width="160" height="90" as="geometry" />
        </mxCell>
        <mxCell id="x3uX6tjqPAJb4ptlxCma-54" value="EndGameMenu" style="swimlane;fontStyle=1;align=center;verticalAlign=top;childLayout=stackLayout;horizontal=1;startSize=26;horizontalStack=0;resizeParent=1;resizeParentMax=0;resizeLast=0;collapsible=1;marginBottom=0;" vertex="1" parent="1">
          <mxGeometry x="70" y="20" width="230" height="150" as="geometry" />
        </mxCell>
        <mxCell id="x3uX6tjqPAJb4ptlxCma-55" value="- currentGame: Game" style="text;strokeColor=none;fillColor=none;align=left;verticalAlign=top;spacingLeft=4;spacingRight=4;overflow=hidden;rotatable=0;points=[[0,0.5],[1,0.5]];portConstraint=eastwest;" vertex="1" parent="x3uX6tjqPAJb4ptlxCma-54">
          <mxGeometry y="26" width="230" height="34" as="geometry" />
        </mxCell>
        <mxCell id="x3uX6tjqPAJb4ptlxCma-56" value="" style="line;strokeWidth=1;fillColor=none;align=left;verticalAlign=middle;spacingTop=-1;spacingLeft=3;spacingRight=3;rotatable=0;labelPosition=right;points=[];portConstraint=eastwest;" vertex="1" parent="x3uX6tjqPAJb4ptlxCma-54">
          <mxGeometry y="60" width="230" height="8" as="geometry" />
        </mxCell>
        <mxCell id="x3uX6tjqPAJb4ptlxCma-57" value="+ PauseMenu(Game currentGame): void&#xa;- displayMenu(): void&#xa;- saveGame(): void&#xa;- returnToMenu(): void&#xa;- resumeGame()" style="text;strokeColor=none;fillColor=none;align=left;verticalAlign=top;spacingLeft=4;spacingRight=4;overflow=hidden;rotatable=0;points=[[0,0.5],[1,0.5]];portConstraint=eastwest;" vertex="1" parent="x3uX6tjqPAJb4ptlxCma-54">
          <mxGeometry y="68" width="230" height="82" as="geometry" />
        </mxCell>
      </root>
    </mxGraphModel>
  </diagram>
</mxfile>
